
<svg width="28" height="28" viewBox="0 0 28 28" fill="none" xmlns="http://www.w3.org/2000/svg">
    <path d="M9.94627 18.053C8.82695 19.1722 7.01219 19.1722 5.89288 18.053L1.83949 13.9996C0.720172 12.8803 0.720172 11.0656 1.83948 9.94628L5.89287 5.89294C7.01219 4.77364 8.82695 4.77364 9.94626 5.89294L13.9997 9.94628C15.119 11.0656 15.119 12.8803 13.9997 13.9996L9.94627 18.053Z" fill="url(#paint0_linear_72976_3920)"/>
    <path d="M9.94627 18.053C8.82695 19.1722 7.01219 19.1722 5.89288 18.053L1.83949 13.9996C0.720172 12.8803 0.720172 11.0656 1.83948 9.94628L5.89287 5.89294C7.01219 4.77364 8.82695 4.77364 9.94626 5.89294L13.9997 9.94628C15.119 11.0656 15.119 12.8803 13.9997 13.9996L9.94627 18.053Z" fill="url(#paint1_linear_72976_3920)"/>
    <path d="M1.83942 13.9999C2.95876 15.1192 4.77357 15.1192 5.89292 13.9999L18.0535 1.8395C19.1728 0.720171 20.9876 0.720165 22.107 1.83949L26.1605 5.89293C27.2798 7.01225 27.2798 8.82704 26.1604 9.94638L13.9999 22.1068C12.8806 23.2261 11.0657 23.2261 9.9464 22.1068L1.83942 13.9999Z" fill="url(#paint2_linear_72976_3920)"/>
    <path d="M1.83942 13.9999C2.95876 15.1192 4.77357 15.1192 5.89292 13.9999L18.0535 1.8395C19.1728 0.720171 20.9876 0.720165 22.107 1.83949L26.1605 5.89293C27.2798 7.01225 27.2798 8.82704 26.1604 9.94638L13.9999 22.1068C12.8806 23.2261 11.0657 23.2261 9.9464 22.1068L1.83942 13.9999Z" fill="url(#paint3_linear_72976_3920)"/>
    <path d="M5.89279 18.0531C7.01214 19.1724 8.82695 19.1724 9.9463 18.0531L18.0533 9.94619C19.1727 8.82686 20.9875 8.82686 22.1068 9.94618L26.1603 13.9996C27.2797 15.119 27.2797 16.9338 26.1603 18.0531L18.0533 26.16C16.934 27.2793 15.1191 27.2793 13.9998 26.16L5.89279 18.0531Z" fill="url(#paint4_linear_72976_3920)"/>
    <path d="M5.89279 18.0531C7.01214 19.1724 8.82695 19.1724 9.9463 18.0531L18.0533 9.94619C19.1727 8.82686 20.9875 8.82686 22.1068 9.94618L26.1603 13.9996C27.2797 15.119 27.2797 16.9338 26.1603 18.0531L18.0533 26.16C16.934 27.2793 15.1191 27.2793 13.9998 26.16L5.89279 18.0531Z" fill="url(#paint5_linear_72976_3920)"/>
    <defs>
        <linearGradient id="paint0_linear_72976_3920" x1="7.91951" y1="5.05348" x2="3.33761" y2="14.8418" gradientUnits="userSpaceOnUse">
            <stop stop-color="#8752E0"/>
            <stop offset="1" stop-color="#541278"/>
        </linearGradient>
        <linearGradient id="paint1_linear_72976_3920" x1="10.0787" y1="12.9921" x2="6.35234" y2="9.33349" gradientUnits="userSpaceOnUse">
            <stop offset="0.12172" stop-color="#3D0D59"/>
            <stop offset="1" stop-color="#7034B0" stop-opacity="0"/>
        </linearGradient>
        <linearGradient id="paint2_linear_72976_3920" x1="20.9009" y1="0.999964" x2="11.6786" y2="23.1208" gradientUnits="userSpaceOnUse">
            <stop stop-color="#DB45E0"/>
            <stop offset="1" stop-color="#6C0F71"/>
        </linearGradient>
        <linearGradient id="paint3_linear_72976_3920" x1="20.9009" y1="0.999964" x2="11.6786" y2="23.1208" gradientUnits="userSpaceOnUse">
            <stop stop-color="#DB45E0"/>
            <stop offset="0.677403" stop-color="#A829AE"/>
            <stop offset="1" stop-color="#8F28B3"/>
        </linearGradient>
        <linearGradient id="paint4_linear_72976_3920" x1="20.5002" y1="9.12453" x2="16.1671" y2="26.9987" gradientUnits="userSpaceOnUse">
            <stop stop-color="#3DCBFF"/>
            <stop offset="1" stop-color="#00479E"/>
        </linearGradient>
        <linearGradient id="paint5_linear_72976_3920" x1="20.7344" y1="9.58677" x2="12.4007" y2="25.8477" gradientUnits="userSpaceOnUse">
            <stop stop-color="#3DCBFF"/>
            <stop offset="1" stop-color="#4A40D4"/>
        </linearGradient>
    </defs>
</svg>